# xmcd
#
# Track frame offsets: 
#        150
#        13915
#        26671
#        40204
#        53675
#        67237
#        81213
#        94766
#        108586
#        122137
#        134532
#        147704
#        160394
#        173979
#        187827
#        200598
#        214759
#        226517
#        239219
#        251127
#        264120
#        277501
#        289910
#
# Disc length: 4036 seconds
#
# Revision: 0
# Processed by: cddbd v1.5.2PL0 Copyright (c) Steve Scherf et al.
# Submitted via: ExactAudioCopyFreeDBPlugin 1.0
#
DISCID=5a0fc217
DTITLE=Coot Grant and Kid Wilson - Complete Recorded Works Vol. 1 (192
DTITLE=5-1928)
DYEAR=1997
DGENRE=Blues
TTITLE0=Crying Won't Make Him Stay
TTITLE1=Rock, Aunt Dinah, Rock
TTITLE2=You Dirty Mistreater
TTITLE3=Come On Coot Do That Thing
TTITLE4=Have Your Chill, I'll Be Here When Your Fever Rises
TTITLE5=Find Me at the Greasy Spoon (If You Miss Me Here)
TTITLE6=Find Me at the Greasy Spoon (If You Miss Me Here)
TTITLE7=Speak Now or Hereafter Hold Your Peace
TTITLE8=When Your Man Is Going to Put You Down (You Never Can Tell)
TTITLE9=Scoop It
TTITLE10=Stevedore Man
TTITLE11=Dying Blues
TTITLE12=Ashley St. Blues
TTITLE13=Dishrag Blues
TTITLE14=Rollin' Mill Blues
TTITLE15=State Street Men Blues
TTITLE16=Down the Country
TTITLE17=Black Biting Bee Blues
TTITLE18=Wilson Dam
TTITLE19=Rasslin' 'Till the Wagon Comes
TTITLE20=Key Hole Blues
TTITLE21=Ducks
TTITLE22=Mama Didn't Do It and Papa Didn't Do It
EXTD=
EXTT0=
EXTT1=
EXTT2=
EXTT3=
EXTT4=
EXTT5=
EXTT6=
EXTT7=
EXTT8=
EXTT9=
EXTT10=
EXTT11=
EXTT12=
EXTT13=
EXTT14=
EXTT15=
EXTT16=
EXTT17=
EXTT18=
EXTT19=
EXTT20=
EXTT21=
EXTT22=
PLAYORDER=
